<?xml version="1.0" encoding="UTF-8" standalone="no"?>
<svg
   width="336.21661mm"
   height="295.55292mm"
   viewBox="0 0 336.21661 295.55292"
   version="1.1"
   id="svg8"
   inkscape:version="1.1.1 (3bf5ae0d25, 2021-09-20, custom)"
   sodipodi:docname="logo.svg"
   inkscape:export-filename="logo_v1.png"
   inkscape:export-xdpi="300.01901"
   inkscape:export-ydpi="300.01901"
   xmlns:inkscape="http://www.inkscape.org/namespaces/inkscape"
   xmlns:sodipodi="http://sodipodi.sourceforge.net/DTD/sodipodi-0.dtd"
   xmlns="http://www.w3.org/2000/svg"
   xmlns:svg="http://www.w3.org/2000/svg"
   xmlns:rdf="http://www.w3.org/1999/02/22-rdf-syntax-ns#"
   xmlns:cc="http://creativecommons.org/ns#"
   xmlns:dc="http://purl.org/dc/elements/1.1/">
  <defs
     id="defs2" />
  <sodipodi:namedview
     id="base"
     pagecolor="#ffffff"
     bordercolor="#666666"
     borderopacity="1.0"
     inkscape:pageopacity="0.0"
     inkscape:pageshadow="2"
     inkscape:zoom="0.27009438"
     inkscape:cx="2804.5752"
     inkscape:cy="7286.3419"
     inkscape:document-units="mm"
     inkscape:current-layer="layer1"
     showgrid="false"
     inkscape:snap-global="false"
     inkscape:window-width="1920"
     inkscape:window-height="1007"
     inkscape:window-x="0"
     inkscape:window-y="0"
     inkscape:window-maximized="1"
     inkscape:snap-bbox="true"
     inkscape:bbox-paths="false"
     inkscape:bbox-nodes="true"
     inkscape:snap-bbox-edge-midpoints="true"
     inkscape:snap-bbox-midpoints="true"
     inkscape:object-nodes="false"
     inkscape:snap-intersection-paths="true"
     inkscape:snap-page="true"
     showguides="false"
     inkscape:document-rotation="0"
     inkscape:pagecheckerboard="0"
     inkscape:showpageshadow="2"
     inkscape:deskcolor="#d1d1d1" />
  <metadata
     id="metadata5">
    <rdf:RDF>
      <cc:Work
         rdf:about="">
        <dc:format>image/svg+xml</dc:format>
        <dc:type
           rdf:resource="http://purl.org/dc/dcmitype/StillImage" />
      </cc:Work>
    </rdf:RDF>
  </metadata>
  <g
     inkscape:label="Layer 1"
     inkscape:groupmode="layer"
     id="layer1"
     transform="translate(930.29623,-909.23221)">
    <g
       id="g4415"
       transform="matrix(2.379695,0,0,2.379695,-1100.9035,594.16745)"
       style="fill:#800080"
       inkscape:export-filename="./logo-tag-vertical.png"
       inkscape:export-xdpi="91.889999"
       inkscape:export-ydpi="91.889999">
      <path
         inkscape:connector-curvature="0"
         style="opacity:1;fill:#800080;fill-opacity:1;fill-rule:nonzero;stroke:none;stroke-width:3.8187;stroke-miterlimit:4;stroke-dasharray:none;stroke-opacity:1;paint-order:markers fill stroke"
         d="m 794.96289,311.87109 v 160 l 140,75.71289 v -160 z m 62.91992,62.23047 7.08008,3.85938 7.08008,3.86133 0.25195,14.51562 0.25196,14.51758 11.39648,5.78125 11.39648,5.7832 v 7.76563 7.76562 L 883.91992,432.15625 872.5,426.36133 v 29.23437 29.23438 l -7.30859,-3.70899 -7.3086,-3.70898 v -29.20703 -29.20703 l -11.64843,-6.16602 -11.64844,-6.16601 v -7.3086 -7.30859 l 11.64844,5.65429 11.64843,5.65626 v -14.62891 z"
         id="path4417"
         transform="matrix(0.26458333,0,0,0.26458333,-106.99531,73.12117)" />
      <path
         inkscape:connector-curvature="0"
         style="opacity:1;fill:#800080;fill-opacity:1;fill-rule:nonzero;stroke:none;stroke-width:3.8187;stroke-miterlimit:4;stroke-dasharray:none;stroke-opacity:1;paint-order:markers fill stroke"
         d="m 1082.9629,311.87109 -140.00001,75.71289 v 160 l 140.00001,-75.71289 z m -64.3438,65.30664 c 0.2351,-0.003 0.4673,0.004 0.6973,0.0215 7.5443,0.56481 8.6011,8.44094 2.5977,19.35742 -2.9274,5.32358 -3.3398,6.66652 -3.1055,10.12891 l 0.2695,3.99218 6.6797,-3.30273 6.6777,-3.30273 -0.2832,2.95703 c -0.2824,2.94897 -0.2967,2.96249 -6.2226,6.25586 l -5.9375,3.29882 0.1621,16.95899 c 0.1713,17.96644 0.9617,21.40017 4.7422,20.57812 3.9162,-0.85164 21.1328,-18.09346 21.1328,-21.16406 0,-2.06026 5.3272,-11.8845 6.3965,-11.79492 0.4147,0.0344 1.0244,1.52335 1.3554,3.30664 0.5405,2.91012 0.1884,4.05778 -3.4355,11.19727 -4.8142,9.48412 -11.8839,19.21219 -20.4375,28.11914 -3.4431,3.58533 -8.5236,9.07656 -11.2871,12.20117 -2.7636,3.12468 -5.4351,5.86458 -5.9375,6.08984 -0.5025,0.22526 -6.1568,0.26843 -12.5664,0.0957 -13.96518,-0.37595 -16.60266,-0.99016 -23.09767,-5.39063 -5.0877,-3.44689 -6.06567,-6.24136 -4.19726,-11.98828 0.58473,-1.79872 1.05904,-1.81569 3.98046,-0.14453 2.16964,1.24112 3.15803,2.57992 2.86133,3.87304 -0.36778,1.60305 0.72431,1.88779 5.77735,1.51172 8.92478,-0.66448 14.06224,-1.73327 15.91989,-3.3164 0.8901,-0.75852 2.0505,-2.92709 2.5782,-4.81836 1.3227,-4.74089 2.7701,-20.15095 2.789,-29.67188 0.017,-9.03193 0.031,-9.02167 -7.8242,-4.82031 -4.87378,2.60659 -4.94922,2.60676 -4.94922,-0.0508 0,-2.69635 0.006,-2.70307 6.16602,-6.26758 l 6.168,-3.57031 0.2812,-5.07617 c 0.2534,-4.58465 0.01,-5.21196 -2.5293,-6.47266 -3.2841,-1.63189 -4.86811,-5.44968 -4.04686,-9.75195 1.37406,-7.19894 7.41566,-14.60534 13.45506,-17.62696 v 0.002 c 1.7615,-0.88128 3.5243,-1.39356 5.1699,-1.41407 z m -2.9414,7.99805 c -0.8577,0.001 -1.8017,0.3199 -2.7402,0.85938 -3.3038,1.89947 -6.5503,6.55574 -5.8184,9.89257 0.963,4.38955 5.3398,3.7752 9.4727,-1.33007 2.4636,-3.0432 2.7346,-7.79641 0.5176,-9.06055 -0.4339,-0.24732 -0.917,-0.36209 -1.4317,-0.36133 z"
         transform="matrix(0.26458333,0,0,0.26458333,-106.99531,73.12117)"
         id="path4419" />
      <path
         inkscape:connector-curvature="0"
         style="opacity:1;fill:#800080;fill-opacity:1;fill-rule:nonzero;stroke:none;stroke-width:3.75132;stroke-miterlimit:4;stroke-dasharray:none;stroke-opacity:1;paint-order:markers fill stroke"
         d="m 941.88867,224.03516 -142.92578,81.83593 140,75.71289 140.00001,-75.71289 z m -9.13086,44.24609 c 8.63291,0.0716 16.35816,4.24997 19.65821,12.30859 1.06102,2.59117 1.88712,5.8449 1.83398,7.23047 l -0.0977,2.51953 5.5293,0.38282 c 13.07165,0.9058 21.54069,7.71219 21.69531,17.43359 0.0847,5.3283 -3.03168,10.66325 -9.20898,15.76172 -10.77933,8.89659 -25.13955,13.19275 -44.85156,13.41797 -8.18945,0.0937 -26.2009,-1.69105 -27.46485,-2.72071 -0.31786,-0.25889 -1.10157,-3.09899 -1.74023,-6.3125 -4.1746,-21.00476 0.0525,-38.63968 12.09375,-50.45898 6.61257,-6.4907 14.93546,-9.62566 22.55273,-9.5625 z"
         transform="matrix(0.26458333,0,0,0.26458333,-106.99531,73.12117)"
         id="path4421" />
    </g>
    <g
       id="g4477"
       transform="translate(-249.73382,-93.096039)"
       inkscape:export-filename="./logo-tag-vertical.png"
       inkscape:export-xdpi="91.889999"
       inkscape:export-ydpi="91.889999">
      <g
         aria-label="Jeux de société · Spiritualité"
         id="text4423"
         style="font-size:22.2776px;line-height:0%;font-family:'Code Pro Light';-inkscape-font-specification:'Code Pro Light, Normal';letter-spacing:0px;word-spacing:0px;fill:#800080;stroke:#800080;stroke-width:0.556941">
        <path
           d="m -672.54251,1281.7851 h -5.23523 v 0.4456 h 4.7674 v 8.5323 c 0,4.2328 -3.18569,6.1041 -7.19566,6.1041 v 0.4901 c 4.25502,0 7.66349,-2.0718 7.66349,-6.5942 z"
           style="line-height:1.25"
           id="path663" />
        <path
           d="m -669.20088,1289.8051 h 7.9531 v -0.4679 h -7.9531 v -7.1288 h 8.13133 v -0.4678 h -8.62144 v 15.6166 h 8.66599 v -0.4679 h -8.17588 z"
           style="line-height:1.25"
           id="path665" />
        <path
           d="m -653.09419,1297.5354 c 2.56193,0 5.45802,-1.5149 5.45802,-4.411 v -11.2947 h -0.46783 v 11.2725 c 0,2.651 -2.65104,3.9431 -4.99019,3.9431 -2.31687,0 -4.9679,-1.2921 -4.9679,-3.9209 v -11.2947 h -0.49011 v 11.2725 c 0,2.9183 2.89609,4.4332 5.45801,4.4332 z"
           style="line-height:1.25"
           id="path667" />
        <path
           d="m -645.38614,1281.8297 5.63623,7.7749 -5.63623,7.7526 h 0.55694 l 5.32434,-7.3516 5.3689,7.3516 h 0.53467 l -5.63624,-7.7526 5.63624,-7.7749 h -0.53467 c -1.75993,2.4505 -3.58669,4.9233 -5.3689,7.3516 l -5.32434,-7.3516 z"
           style="line-height:1.25"
           id="path669" />
        <path
           d="m -625.55905,1296.8893 v -14.5918 h 4.81196 c 4.76741,0 7.17339,3.6535 7.17339,7.3071 0,3.6535 -2.40598,7.2847 -7.17339,7.2847 z m -0.46783,-15.0596 v 15.5275 h 5.27979 c 5.07929,0 7.64122,-3.854 7.64122,-7.7526 0,-3.8763 -2.56193,-7.7749 -7.64122,-7.7749 z"
           style="line-height:1.25"
           id="path671" />
        <path
           d="m -609.87563,1289.8051 h 7.9531 v -0.4679 h -7.9531 v -7.1288 h 8.13132 v -0.4678 h -8.62143 v 15.6166 h 8.66599 v -0.4679 h -8.17588 z"
           style="line-height:1.25"
           id="path673" />
        <path
           d="m -584.12273,1285.305 0.49011,-0.089 -0.0446,-0.2228 c -0.44556,-2.3169 -2.71787,-3.453 -5.03474,-3.453 -2.67331,0 -5.54712,1.4703 -5.34663,4.5892 0.35645,3.2525 3.02976,3.4084 5.41346,3.6535 2.09409,0.2228 4.38869,0.5347 4.83424,2.5842 0.0668,0.3119 0.0891,0.5792 0.0891,0.8243 0,2.5173 -2.60648,3.9431 -5.03474,3.9431 -2.04954,0 -4.58918,-1.2253 -4.87879,-3.453 l -0.0223,-0.2228 -0.51238,0.045 0.0223,0.2227 c 0.26733,2.562 3.09659,3.8763 5.36891,3.8763 2.69558,0 5.56939,-1.604 5.56939,-4.3887 0,-0.3118 -0.0446,-0.6015 -0.11138,-0.9579 -0.53467,-2.3837 -3.00748,-2.7179 -5.25752,-2.9406 -2.22776,-0.2451 -4.74513,-0.5124 -4.94562,-3.208 -0.2005,-2.6065 2.27231,-4.0545 4.67829,-4.0991 1.35894,-0.022 2.91837,0.4456 3.85403,1.4035 0.40099,0.4456 0.6906,1.0693 0.82427,1.6708 z"
           style="line-height:1.25"
           id="path675" />
        <path
           d="m -565.98875,1289.5823 c 0,2.0718 -0.84655,3.9431 -2.16093,5.2798 -1.33665,1.3812 -3.23025,2.2277 -5.27979,2.2277 -2.04954,0 -3.92086,-0.8465 -5.25751,-2.2277 -1.33666,-1.3367 -2.18321,-3.208 -2.18321,-5.2798 0,-2.0718 0.84655,-3.9431 2.18321,-5.2798 1.33665,-1.3589 3.20797,-2.2278 5.25751,-2.2278 2.04954,0 3.94314,0.8689 5.27979,2.2278 1.31438,1.3367 2.16093,3.208 2.16093,5.2798 z m -15.37154,0 c 0,2.2055 0.91338,4.1882 2.33914,5.6362 1.42577,1.4703 3.40848,2.3615 5.59168,2.3615 2.20548,0 4.18819,-0.8912 5.61396,-2.3615 1.40349,-1.448 2.33914,-3.4307 2.33914,-5.6362 0,-2.2055 -0.93565,-4.1882 -2.33914,-5.6362 -1.42577,-1.4704 -3.40848,-2.3615 -5.61396,-2.3615 -2.1832,0 -4.16591,0.8911 -5.59168,2.3615 -1.42576,1.448 -2.33914,3.4307 -2.33914,5.6362 z"
           style="line-height:1.25"
           id="path677" />
        <path
           d="m -548.36718,1286.4412 c -0.401,-0.958 -0.98022,-1.8045 -1.67082,-2.5174 -1.38121,-1.4258 -3.25253,-2.2946 -5.39118,-2.2946 -2.11637,0 -3.98769,0.8688 -5.39118,2.2946 -1.35893,1.4258 -2.25004,3.3193 -2.25004,5.6585 0,2.4283 0.89111,4.1659 2.25004,5.5917 1.40349,1.4257 3.27481,2.2946 5.39118,2.2946 2.13865,0 4.00997,-0.8689 5.39118,-2.2946 0.6906,-0.7129 1.26982,-1.5817 1.67082,-2.5174 h -0.53466 c -0.35645,0.8688 -0.86883,1.5594 -1.47033,2.1609 -1.26982,1.3367 -3.0743,2.161 -5.05701,2.161 -1.96043,0 -3.76492,-0.8243 -5.05702,-2.161 -1.26982,-1.2921 -2.09409,-3.0297 -2.09409,-5.2352 0,-2.1832 0.82427,-4.01 2.09409,-5.3244 1.2921,-1.3366 3.09659,-2.1386 5.05702,-2.1386 1.98271,0 3.78719,0.802 5.05701,2.1386 0.6015,0.6238 1.11388,1.3367 1.47033,2.1833 z"
           style="line-height:1.25"
           id="path679" />
        <path
           d="m -540.32497,1281.8297 h -7.01745 v 0.4455 h 3.27481 v 14.6141 h -3.27481 v 0.4679 h 7.01745 v -0.4679 h -3.27481 v -14.6141 h 3.27481 z"
           style="line-height:1.25"
           id="path681" />
        <path
           d="m -538.14179,1289.8051 h 7.99766 v -0.4901 h -7.99766 v -7.0843 h 8.17588 v -0.4678 h -8.64371 v 15.5943 h 8.68826 v -0.4679 h -8.22043 z m 4.16591,-9.1338 1.58171,-1.7823 h -0.66833 l -1.44804,1.7823 z"
           style="line-height:1.25"
           id="path683" />
        <path
           d="m -522.50292,1297.3572 v -15.0597 h 5.34662 v -0.4901 h -11.1388 v 0.4901 h 5.34663 v 15.0597 z"
           style="line-height:1.25"
           id="path685" />
        <path
           d="m -515.41863,1289.8051 h 7.99766 v -0.4901 h -7.99766 v -7.0843 h 8.17588 v -0.4678 h -8.64371 v 15.5943 h 8.68826 v -0.4679 h -8.22043 z m 4.16591,-9.1338 1.58171,-1.7823 h -0.66833 l -1.44804,1.7823 z"
           style="line-height:1.25"
           id="path687" />
        <path
           d="m -498.37626,1289.3372 c -0.26733,0 -0.53466,0.1783 -0.53466,0.5347 0,0.3119 0.26733,0.4901 0.53466,0.4901 0.26733,0 0.51239,-0.245 0.51239,-0.4901 0,-0.2896 -0.24506,-0.5347 -0.51239,-0.5347 z"
           style="line-height:1.25"
           id="path689" />
        <path
           d="m -479.37345,1285.3273 0.46783,-0.067 -0.0446,-0.2673 c -0.42327,-2.2946 -2.67331,-3.4085 -4.9679,-3.4085 -1.75993,0 -3.51986,0.6461 -4.50008,1.9159 -0.57922,0.7574 -0.82427,1.7599 -0.75744,2.6288 0.22278,3.0297 2.94065,3.3862 5.32435,3.6312 2.07182,0.2228 4.34413,0.5347 4.78968,2.5619 0.0668,0.2896 0.0891,0.5793 0.0891,0.8243 0,2.4951 -2.5842,3.8986 -4.99018,3.8986 -2.04954,0 -4.56691,-1.203 -4.85652,-3.4308 l -0.0223,-0.2005 -0.49011,0.045 0.0223,0.2005 c 0.26733,2.5396 3.05203,3.854 5.32434,3.854 2.67332,0 5.52485,-1.5817 5.52485,-4.3441 0,-0.3119 -0.0446,-0.6461 -0.11139,-0.9579 -0.51238,-2.3615 -2.96292,-2.6956 -5.19068,-2.9184 -2.25004,-0.2451 -4.74513,-0.6015 -4.94563,-3.1857 -0.0668,-0.8243 0.11139,-1.6486 0.64605,-2.3169 0.91338,-1.1807 2.56193,-1.7154 4.00997,-1.7376 1.31438,-0.022 2.89609,0.4455 3.80947,1.3812 0.401,0.4455 0.69061,1.0693 0.82427,1.6708 z"
           style="line-height:1.25"
           id="path691" />
        <path
           d="m -475.47487,1281.7629 v 15.5943 h 0.49011 v -5.9036 h 4.90107 c 3.14114,0 4.70057,-2.406 4.70057,-4.8342 0,-2.406 -1.55943,-4.8565 -4.70057,-4.8565 z m 0.49011,9.2229 v -8.7328 h 4.90107 c 2.82926,0 4.23274,2.2054 4.23274,4.3887 0,2.1832 -1.40348,4.3441 -4.23274,4.3441 z"
           style="line-height:1.25"
           id="path693" />
        <path
           d="m -457.07355,1281.8297 h -7.01745 v 0.4455 h 3.27481 v 14.6141 h -3.27481 v 0.4679 h 7.01745 v -0.4679 h -3.27481 v -14.6141 h 3.27481 z"
           style="line-height:1.25"
           id="path695" />
        <path
           d="m -453.97698,1282.2975 h 4.92335 c 2.82926,0 4.23274,2.0496 4.23274,4.0991 0,2.0495 -1.40348,4.0991 -4.23274,4.0991 h -3.05203 v 0.401 l 7.12883,6.4605 h 0.71288 l -7.12883,-6.416 h 2.33915 c 3.14114,0 4.70057,-2.25 4.70057,-4.5446 0,-2.2723 -1.55943,-4.5892 -4.70057,-4.5892 h -5.39118 v 15.5498 h 0.46783 z"
           style="line-height:1.25"
           id="path697" />
        <path
           d="m -435.50884,1281.8297 h -7.01745 v 0.4455 h 3.27481 v 14.6141 h -3.27481 v 0.4679 h 7.01745 v -0.4679 h -3.27481 v -14.6141 h 3.27481 z"
           style="line-height:1.25"
           id="path699" />
        <path
           d="m -427.91219,1297.3572 v -15.0597 h 5.34662 v -0.4901 h -11.1388 v 0.4901 h 5.34663 v 15.0597 z"
           style="line-height:1.25"
           id="path701" />
        <path
           d="m -414.92433,1297.5354 c 2.56193,0 5.45801,-1.5149 5.45801,-4.411 v -11.2947 h -0.46783 v 11.2725 c 0,2.651 -2.65103,3.9431 -4.99018,3.9431 -2.31687,0 -4.9679,-1.2921 -4.9679,-3.9209 v -11.2947 h -0.49011 v 11.2725 c 0,2.9183 2.89609,4.4332 5.45801,4.4332 z"
           style="line-height:1.25"
           id="path703" />
        <path
           d="m -401.11222,1282.2975 c 1.26982,3.1857 2.40598,6.2377 3.65352,9.4234 h -7.30705 z m 5.97039,15.0597 h 0.53466 l -6.26,-15.7726 h -0.46783 l -6.23773,15.7726 h 0.51239 l 2.09409,-5.1684 h 7.70805 z"
           style="line-height:1.25"
           id="path705" />
        <path
           d="m -391.64425,1281.7183 h -0.4901 v 15.6389 h 8.75509 v -0.4901 h -8.26499 z"
           style="line-height:1.25"
           id="path707" />
        <path
           d="m -374.1563,1281.8297 h -7.01745 v 0.4455 h 3.27481 v 14.6141 h -3.27481 v 0.4679 h 7.01745 v -0.4679 h -3.27481 v -14.6141 h 3.27481 z"
           style="line-height:1.25"
           id="path709" />
        <path
           d="m -366.55964,1297.3572 v -15.0597 h 5.34663 v -0.4901 h -11.1388 v 0.4901 h 5.34662 v 15.0597 z"
           style="line-height:1.25"
           id="path711" />
        <path
           d="m -359.47533,1289.8051 h 7.99766 v -0.4901 h -7.99766 v -7.0843 h 8.17588 v -0.4678 h -8.64371 v 15.5943 h 8.68826 v -0.4679 h -8.22043 z m 4.16591,-9.1338 1.58171,-1.7823 h -0.66833 l -1.44804,1.7823 z"
           style="line-height:1.25"
           id="path713" />
      </g>
      <g
         aria-label="HolyGAMES"
         id="text4427"
         style="font-size:61.2348px;line-height:0%;font-family:'Code Pro Light';-inkscape-font-specification:'Code Pro Light, Normal';letter-spacing:0px;word-spacing:0px;fill:#800080;stroke:#800080;stroke-width:0.833538">
        <path
           d="m -678.85972,1226.7765 h -1.28593 v 42.8644 h 1.28593 v -21.0648 h 26.26973 v 21.0648 h 1.34716 v -42.8644 h -1.34716 v 20.5137 h -26.26973 z"
           style="line-height:100%"
           id="path716" />
        <path
           d="m -602.01001,1248.2699 c 0,5.6949 -2.32693,10.8386 -5.93978,14.5127 -3.67409,3.7965 -8.87904,6.1235 -14.51265,6.1235 -5.6336,0 -10.77732,-2.327 -14.45141,-6.1235 -3.67409,-3.6741 -6.00101,-8.8178 -6.00101,-14.5127 0,-5.6948 2.32692,-10.8385 6.00101,-14.5126 3.67409,-3.7353 8.81781,-6.1235 14.45141,-6.1235 5.63361,0 10.83856,2.3882 14.51265,6.1235 3.61285,3.6741 5.93978,8.8178 5.93978,14.5126 z m -42.25201,0 c 0,6.0623 2.51062,11.5122 6.42965,15.4924 3.91903,4.0415 9.36892,6.4909 15.36993,6.4909 6.06225,0 11.51215,-2.4494 15.43117,-6.4909 3.8578,-3.9802 6.42966,-9.4301 6.42966,-15.4924 0,-6.0622 -2.57186,-11.5121 -6.42966,-15.4924 -3.91902,-4.0415 -9.36892,-6.4909 -15.43117,-6.4909 -6.00101,0 -11.4509,2.4494 -15.36993,6.4909 -3.91903,3.9803 -6.42965,9.4302 -6.42965,15.4924 z"
           style="line-height:100%"
           id="path718" />
        <path
           d="m -592.27371,1226.654 h -1.34716 v 42.9869 h 24.06527 v -1.3472 h -22.71811 z"
           style="line-height:100%"
           id="path720" />
        <path
           d="m -572.43359,1226.7765 15.73734,25.29 v 17.5744 h 1.28593 v -17.5744 l 15.73735,-25.29 h -1.59211 l -14.81882,23.8203 -14.75759,-23.8203 z"
           style="line-height:100%"
           id="path722" />
        <path
           d="m -495.09401,1239.8808 c -2.87804,-8.328 -10.89979,-13.4717 -19.3502,-13.4717 -5.8173,0 -11.02226,2.4494 -14.88005,6.4297 -3.67409,4.0415 -6.12348,9.4301 -6.12348,15.4311 0,6.0623 2.38815,11.4509 6.12348,15.4312 3.85779,3.9803 9.06275,6.4909 14.88005,6.4909 7.53188,0 16.5334,-5.8786 19.5339,-13.5941 0.55112,-1.286 0.91853,-2.8781 1.041,-4.5314 h -20.39119 v 1.3471 h 18.73785 c -1.65334,8.8791 -10.53239,15.37 -18.92156,15.37 -5.38866,0 -10.34868,-2.3882 -13.96153,-6.0623 -3.30668,-3.6741 -5.69484,-8.9402 -5.69484,-14.4514 0,-5.5723 2.38816,-10.7773 5.69484,-14.4514 3.61285,-3.6128 8.57287,-6.0622 13.96153,-6.0622 7.77682,0 15.00253,4.5313 17.9418,12.1245 z"
           style="line-height:100%"
           id="path724" />
        <path
           d="m -472.25348,1228.1237 c 3.42915,8.8178 6.61336,17.1457 10.04251,25.9635 h -20.14625 z m 16.41093,41.5172 h 1.46963 l -17.20697,-43.4767 h -1.28594 l -17.26821,43.4767 h 1.46964 l 5.75607,-14.2677 h 21.24847 z"
           style="line-height:100%"
           id="path726" />
        <path
           d="m -447.88199,1228.981 17.08451,25.2899 h 0.85729 l 17.08451,-25.3512 v 40.7212 h 1.28593 v -42.8644 h -1.2247 l -17.63562,25.9023 -17.51315,-25.9023 h -1.2247 v 42.8644 h 1.28593 z"
           style="line-height:100%"
           id="path728" />
        <path
           d="m -402.01707,1248.8823 h 21.98329 v -1.3472 h -21.98329 v -19.4727 h 22.47317 v -1.2859 h -23.7591 v 42.8644 h 23.88157 v -1.286 h -22.59564 z"
           style="line-height:100%"
           id="path730" />
        <path
           d="m -347.2732,1236.5741 1.28594,-0.1837 -0.12247,-0.7348 c -1.16347,-6.3072 -7.34818,-9.369 -13.65536,-9.369 -4.83755,0 -9.6751,1.7758 -12.36943,5.2662 -1.59211,2.082 -2.26569,4.8376 -2.08199,7.2257 0.61235,8.328 8.083,9.3077 14.63512,9.9813 5.69484,0.6124 11.94079,1.4696 13.16548,7.042 0.18371,0.7961 0.24494,1.5921 0.24494,2.2657 0,6.8583 -7.10324,10.7161 -13.71659,10.7161 -5.63361,0 -12.55314,-3.3067 -13.34919,-9.4302 l -0.0612,-0.5511 -1.34717,0.1225 0.0612,0.5511 c 0.73482,6.9808 8.38917,10.5936 14.63512,10.5936 7.34818,0 15.18623,-4.3477 15.18623,-11.9408 0,-0.8573 -0.12247,-1.7758 -0.30617,-2.6331 -1.4084,-6.4909 -8.14423,-7.4094 -14.26771,-8.0217 -6.18472,-0.6736 -13.04301,-1.6534 -13.59413,-8.7566 -0.1837,-2.2657 0.30618,-4.5314 1.77581,-6.3684 2.51063,-3.2455 7.04201,-4.7151 11.02227,-4.7763 3.61285,-0.061 7.96052,1.2247 10.47115,3.7965 1.10222,1.2247 1.89828,2.9393 2.26569,4.5926 z"
           style="line-height:100%"
           id="path732" />
      </g>
    </g>
  </g>
</svg>
